<svg width="43" height="49" viewBox="0 0 43 49" fill="none" xmlns="http://www.w3.org/2000/svg">
<path d="M38.125 28.2668V19.75C38.125 12.1096 32.9356 5.67337 25.9056 3.73775C25.2098 1.985 23.5093 0.75 21.5 0.75C19.4908 0.75 17.7903 1.985 17.0944 3.73775C10.0644 5.67575 4.875 12.1096 4.875 19.75V28.2668L0.820877 32.3209C0.599901 32.5411 0.424655 32.8028 0.305228 33.0909C0.1858 33.3791 0.12455 33.6881 0.125002 34V38.75C0.125002 39.3799 0.375225 39.984 0.820624 40.4294C1.26602 40.8748 1.87011 41.125 2.5 41.125H40.5C41.1299 41.125 41.734 40.8748 42.1794 40.4294C42.6248 39.984 42.875 39.3799 42.875 38.75V34C42.8755 33.6881 42.8142 33.3791 42.6948 33.0909C42.5754 32.8028 42.4001 32.5411 42.1791 32.3209L38.125 28.2668ZM38.125 36.375H4.875V34.9832L8.92913 30.9291C9.1501 30.7089 9.32535 30.4472 9.44478 30.1591C9.56421 29.8709 9.62546 29.5619 9.625 29.25V19.75C9.625 13.2021 14.9521 7.875 21.5 7.875C28.0479 7.875 33.375 13.2021 33.375 19.75V29.25C33.375 29.8818 33.6244 30.485 34.0709 30.9291L38.125 34.9832V36.375ZM21.5 48.25C22.9708 48.2519 24.4057 47.7954 25.6052 46.9441C26.8046 46.0929 27.7091 44.889 28.1928 43.5H14.8073C15.291 44.889 16.1954 46.0929 17.3948 46.9441C18.5943 47.7954 20.0292 48.2519 21.5 48.25Z" fill="white"/>
</svg>
