<svg width="43" height="45" viewBox="0 0 43 45" fill="none" xmlns="http://www.w3.org/2000/svg">
<path d="M25.5192 44.5833H17.4808C16.9772 44.5834 16.4886 44.4113 16.0962 44.0956C15.7038 43.7799 15.4311 43.3396 15.3233 42.8476L14.4245 38.6871C13.2255 38.1617 12.0886 37.5048 11.0347 36.7283L6.97801 38.0202C6.49784 38.1733 5.97973 38.1576 5.50973 37.9756C5.03973 37.7936 4.64612 37.4563 4.39426 37.0198L0.366259 30.0613C0.117038 29.6244 0.0234871 29.1158 0.100911 28.6187C0.178335 28.1217 0.42215 27.6657 0.792467 27.3252L3.93934 24.4544C3.79624 23.1539 3.79624 21.8417 3.93934 20.5412L0.792467 17.677C0.421625 17.3364 0.177479 16.88 0.100042 16.3824C0.0226057 15.8849 0.116473 15.3759 0.366259 14.9387L4.38543 7.97579C4.63729 7.53924 5.0309 7.20197 5.5009 7.02C5.9709 6.83803 6.489 6.82229 6.96918 6.97542L11.0259 8.26729C11.5647 7.86979 12.1256 7.49879 12.7042 7.16313C13.2629 6.84954 13.8371 6.56467 14.4245 6.31071L15.3255 2.15463C15.4328 1.6626 15.705 1.22202 16.097 0.905922C16.489 0.589823 16.9773 0.417198 17.4808 0.416668H25.5192C26.0228 0.417198 26.511 0.589823 26.903 0.905922C27.295 1.22202 27.5672 1.6626 27.6745 2.15463L28.5843 6.31292C29.7826 6.83828 30.9188 7.49524 31.9719 8.27171L36.0308 6.97984C36.5107 6.82727 37.0283 6.8433 37.4978 7.02524C37.9674 7.20719 38.3606 7.54413 38.6124 7.98021L42.6315 14.9431C43.1439 15.8419 42.9672 16.9792 42.2053 17.6792L39.0585 20.55C39.2016 21.8505 39.2016 23.1627 39.0585 24.4632L42.2053 27.334C42.9672 28.0363 43.1439 29.1714 42.6315 30.0702L38.6124 37.033C38.3605 37.4696 37.9669 37.8069 37.4969 37.9888C37.0269 38.1708 36.5088 38.1865 36.0286 38.0334L31.9719 36.7415C30.9188 37.5174 29.7827 38.1737 28.5843 38.6981L27.6745 42.8476C27.5668 43.3392 27.2944 43.7793 26.9024 44.0949C26.5105 44.4106 26.0224 44.5829 25.5192 44.5833ZM11.8275 31.839L13.6383 33.164C14.0469 33.4644 14.4709 33.7404 14.9125 33.9922C15.3277 34.2329 15.7517 34.4493 16.1912 34.6458L18.2516 35.549L19.2608 40.1667H23.7437L24.7529 35.5468L26.8133 34.6436C27.7121 34.2461 28.5667 33.7537 29.3595 33.1729L31.1703 31.8479L35.6797 33.2833L37.9212 29.401L34.4254 26.2144L34.6727 23.9796C34.7831 23.0013 34.7831 22.0142 34.6727 21.0381L34.4254 18.8033L37.9234 15.61L35.6797 11.7255L31.1725 13.161L29.3595 11.836C28.5662 11.2523 27.7126 10.7555 26.8133 10.3542L24.7529 9.45096L23.7437 4.83333H19.2608L18.2449 9.45317L16.1912 10.3542C15.2906 10.7486 14.4366 11.2419 13.645 11.8249L11.8319 13.1499L7.32693 11.7145L5.08105 15.61L8.57684 18.7922L8.32951 21.0293C8.21909 22.0075 8.21909 22.9947 8.32951 23.9708L8.57684 26.2056L5.08105 29.3922L7.32251 33.2745L11.8275 31.839ZM21.4912 31.3333C19.1484 31.3333 16.9016 30.4027 15.2451 28.7461C13.5885 27.0895 12.6578 24.8427 12.6578 22.5C12.6578 20.1573 13.5885 17.9105 15.2451 16.2539C16.9016 14.5973 19.1484 13.6667 21.4912 13.6667C23.8339 13.6667 26.0807 14.5973 27.7373 16.2539C29.3939 17.9105 30.3245 20.1573 30.3245 22.5C30.3245 24.8427 29.3939 27.0895 27.7373 28.7461C26.0807 30.4027 23.8339 31.3333 21.4912 31.3333ZM21.4912 18.0833C20.6263 18.0842 19.7807 18.339 19.0593 18.8161C18.3379 19.2932 17.7725 19.9716 17.4331 20.7671C17.0938 21.5626 16.9955 22.4403 17.1504 23.2912C17.3053 24.142 17.7067 24.9287 18.3046 25.5536C18.9026 26.1785 19.6709 26.614 20.5141 26.8062C21.3574 26.9984 22.2385 26.9388 23.0482 26.6348C23.8579 26.3308 24.5605 25.7957 25.0688 25.096C25.5772 24.3963 25.8689 23.5628 25.9078 22.6988V23.5821V22.5C25.9078 21.3286 25.4425 20.2052 24.6142 19.3769C23.7859 18.5487 22.6625 18.0833 21.4912 18.0833Z" fill="white"/>
</svg>
